<?xml version="1.0" encoding="UTF-8"?>
<svg xmlns="http://www.w3.org/2000/svg" width="1024" height="1024" viewBox="0 0 1024 1024" role="img" aria-label="SkillSync logo">
  <defs>
    <filter id="softShadow" x="-20%" y="-20%" width="140%" height="140%">
      <feDropShadow dx="0" dy="18" stdDeviation="22" flood-color="#7A5AF8" flood-opacity="0.18"/>
    </filter>
    <radialGradient id="bgGlow" cx="0.35" cy="0.22" r="0.95">
      <stop offset="0" stop-color="#FFFFFF" stop-opacity="0.18"/>
      <stop offset="0.58" stop-color="#FFFFFF" stop-opacity="0"/>
    </radialGradient>
  </defs>

  <rect width="1024" height="1024" rx="228" fill="#C4AEFF"/>
  <rect width="1024" height="1024" rx="228" fill="url(#bgGlow)"/>

  <g filter="url(#softShadow)">
    <path
      d="M 705 236
         C 640 176 504 170 420 224
         C 350 269 340 346 398 392
         C 441 426 505 437 560 452
         C 648 476 700 524 692 594
         C 681 689 592 732 470 725
         C 378 720 316 689 260 632"
      fill="none"
      stroke="#FFFFFF"
      stroke-width="112"
      stroke-linecap="round"
      stroke-linejoin="round"
    />
  </g>

  <g fill="#7A5AF8" opacity="0.22">
    <circle cx="792" cy="246" r="18"/>
    <circle cx="214" cy="730" r="14"/>
    <circle cx="780" cy="706" r="10"/>
    <circle cx="314" cy="332" r="9"/>
    <circle cx="606" cy="864" r="12"/>
  </g>

  <g fill="#FFFFFF" opacity="0.34">
    <circle cx="804" cy="206" r="8"/>
    <circle cx="188" cy="792" r="7"/>
    <circle cx="620" cy="182" r="6"/>
  </g>
</svg>
